<?xml version="1.0" ?>
<svg xmlns="http://www.w3.org/2000/svg" xmlns:ev="http://www.w3.org/2001/xml-events" xmlns:xlink="http://www.w3.org/1999/xlink" baseProfile="full" height="600px" version="1.1" viewBox="-7.035 -42.035 84.07 84.07" width="600px">
	<defs/>
	<path d="M 0.0,-35.0 L 70.0,-35.0" fill="none" stroke="#000000" stroke-width="0.07"/>
	<path d="M 70.0,-35.0 L 70.0,35.0" fill="none" stroke="#000000" stroke-width="0.07"/>
	<path d="M 70.0,35.0 L 0.0,35.0" fill="none" stroke="#000000" stroke-width="0.07"/>
	<path d="M 0.0,35.0 L 0.0,5.0" fill="none" stroke="#000000" stroke-width="0.07"/>
	<path d="M 0.0,5.0 L 0.0,-5.0" fill="none" stroke="#000000" stroke-width="0.07"/>
	<path d="M 0.0,-5.0 L 0.0,-35.0" fill="none" stroke="#000000" stroke-width="0.07"/>
	<path d="M 0.0,-5.0 L 5.0,-5.0" fill="none" stroke="#000000" stroke-width="0.07"/>
	<path d="M 5.0,-5.0 L 5.0,5.0" fill="none" stroke="#000000" stroke-width="0.07"/>
	<path d="M 5.0,5.0 L 0.0,5.0" fill="none" stroke="#000000" stroke-width="0.07"/>
	<path d="M 1.0775719999999989,-15.0 L 2.0775720000000026,-15.0" fill="none" stroke="#000000" stroke-width="0.07"/>
	<path d="M 2.077572,-15.0 L 2.077572,-13.5" fill="none" stroke="#000000" stroke-width="0.07"/>
	<path d="M 2.077572,-13.5 L 1.0775720000000013,-13.5" fill="none" stroke="#000000" stroke-width="0.07"/>
	<path d="M 1.077572,-13.5 L 1.077572,-15.0" fill="none" stroke="#000000" stroke-width="0.07"/>
	<path d="M 12.081099,-13.5 L 13.081099,-13.5" fill="none" stroke="#000000" stroke-width="0.07"/>
	<path d="M 13.081099,-13.5 L 13.081099,-12.0" fill="none" stroke="#000000" stroke-width="0.07"/>
	<path d="M 13.081099,-12.0 L 12.081099,-12.0" fill="none" stroke="#000000" stroke-width="0.07"/>
	<path d="M 12.081099,-12.0 L 12.081099,-13.5" fill="none" stroke="#000000" stroke-width="0.07"/>
	<path d="M 5.120719,-12.0 L 6.120719,-12.0" fill="none" stroke="#000000" stroke-width="0.07"/>
	<path d="M 6.120719,-12.0 L 6.120719,-10.5" fill="none" stroke="#000000" stroke-width="0.07"/>
	<path d="M 6.120719,-10.5 L 5.120719,-10.5" fill="none" stroke="#000000" stroke-width="0.07"/>
	<path d="M 5.120719,-10.5 L 5.120719,-12.0" fill="none" stroke="#000000" stroke-width="0.07"/>
	<path d="M 20.172014,-10.5 L 21.172014,-10.5" fill="none" stroke="#000000" stroke-width="0.07"/>
	<path d="M 21.172014,-10.5 L 21.172014,-9.0" fill="none" stroke="#000000" stroke-width="0.07"/>
	<path d="M 21.172014,-9.0 L 20.172014,-9.0" fill="none" stroke="#000000" stroke-width="0.07"/>
	<path d="M 20.172014,-9.0 L 20.172014,-10.5" fill="none" stroke="#000000" stroke-width="0.07"/>
	<path d="M 16.271996,-9.0 L 17.271996,-9.0" fill="none" stroke="#000000" stroke-width="0.07"/>
	<path d="M 17.271996,-9.0 L 17.271996,-7.5" fill="none" stroke="#000000" stroke-width="0.07"/>
	<path d="M 17.271996,-7.5 L 16.271996,-7.5" fill="none" stroke="#000000" stroke-width="0.07"/>
	<path d="M 16.271996,-7.5 L 16.271996,-9.0" fill="none" stroke="#000000" stroke-width="0.07"/>
	<path d="M 5.526311,-7.5 L 6.526311,-7.5" fill="none" stroke="#000000" stroke-width="0.07"/>
	<path d="M 6.526311,-7.5 L 6.526311,-6.0" fill="none" stroke="#000000" stroke-width="0.07"/>
	<path d="M 6.526311,-6.0 L 5.526311,-6.0" fill="none" stroke="#000000" stroke-width="0.07"/>
	<path d="M 5.526311,-6.0 L 5.526311,-7.5" fill="none" stroke="#000000" stroke-width="0.07"/>
	<path d="M 25.74817800000001,-6.0 L 26.748178,-6.0" fill="none" stroke="#000000" stroke-width="0.07"/>
	<path d="M 26.748178,-6.0 L 26.748178,-4.5" fill="none" stroke="#000000" stroke-width="0.07"/>
	<path d="M 26.748178,-4.5 L 25.748178,-4.5" fill="none" stroke="#000000" stroke-width="0.07"/>
	<path d="M 25.748178,-4.5 L 25.748178,-6.0" fill="none" stroke="#000000" stroke-width="0.07"/>
	<path d="M 9.355905,-4.5 L 10.355905,-4.5" fill="none" stroke="#000000" stroke-width="0.07"/>
	<path d="M 10.355905,-4.5 L 10.355905,-3.0" fill="none" stroke="#000000" stroke-width="0.07"/>
	<path d="M 10.355905,-3.0 L 9.355905,-3.0" fill="none" stroke="#000000" stroke-width="0.07"/>
	<path d="M 9.355905,-3.0 L 9.355905,-4.5" fill="none" stroke="#000000" stroke-width="0.07"/>
	<path d="M 45.987766,-3.0 L 46.987766,-3.0" fill="none" stroke="#000000" stroke-width="0.07"/>
	<path d="M 46.987766,-3.0 L 46.987766,-1.5" fill="none" stroke="#000000" stroke-width="0.07"/>
	<path d="M 46.987766,-1.5 L 45.987766,-1.5" fill="none" stroke="#000000" stroke-width="0.07"/>
	<path d="M 45.987766,-1.5 L 45.987766,-3.0" fill="none" stroke="#000000" stroke-width="0.07"/>
	<path d="M 7.401189,-1.5 L 8.401189,-1.5" fill="none" stroke="#000000" stroke-width="0.07"/>
	<path d="M 8.401189,-1.5 L 8.401189,0.0" fill="none" stroke="#000000" stroke-width="0.07"/>
	<path d="M 8.401189,0.0 L 7.401189,0.0" fill="none" stroke="#000000" stroke-width="0.07"/>
	<path d="M 7.401189,0.0 L 7.401189,-1.5" fill="none" stroke="#000000" stroke-width="0.07"/>
	<path d="M 10.443497,0.0 L 11.443497,0.0" fill="none" stroke="#000000" stroke-width="0.07"/>
	<path d="M 11.443497,0.0 L 11.443497,1.5" fill="none" stroke="#000000" stroke-width="0.07"/>
	<path d="M 11.443497,1.5 L 10.443497,1.5" fill="none" stroke="#000000" stroke-width="0.07"/>
	<path d="M 10.443497,1.5 L 10.443497,0.0" fill="none" stroke="#000000" stroke-width="0.07"/>
	<path d="M 38.464941,1.5 L 39.464941,1.5" fill="none" stroke="#000000" stroke-width="0.07"/>
	<path d="M 39.464941,1.5 L 39.464941,3.0" fill="none" stroke="#000000" stroke-width="0.07"/>
	<path d="M 39.464940999999996,3.0 L 38.464941,3.0" fill="none" stroke="#000000" stroke-width="0.07"/>
	<path d="M 38.464941,3.0 L 38.464941,1.5" fill="none" stroke="#000000" stroke-width="0.07"/>
	<path d="M 16.626341,3.0 L 17.626341,3.0" fill="none" stroke="#000000" stroke-width="0.07"/>
	<path d="M 17.626341,3.0 L 17.626341,4.5" fill="none" stroke="#000000" stroke-width="0.07"/>
	<path d="M 17.626341,4.5 L 16.626341,4.5" fill="none" stroke="#000000" stroke-width="0.07"/>
	<path d="M 16.626341,4.5 L 16.626341,3.0" fill="none" stroke="#000000" stroke-width="0.07"/>
	<path d="M 7.767936,4.5 L 8.767936,4.5" fill="none" stroke="#000000" stroke-width="0.07"/>
	<path d="M 8.767936,4.5 L 8.767936,6.0" fill="none" stroke="#000000" stroke-width="0.07"/>
	<path d="M 8.767936,6.0 L 8.425435999999996,6.0" fill="none" stroke="#000000" stroke-width="0.07"/>
	<path d="M 8.425435999999996,6.0 L 7.767936,6.0" fill="none" stroke="#000000" stroke-width="0.07"/>
	<path d="M 7.767936,6.0 L 7.767936,4.5" fill="none" stroke="#000000" stroke-width="0.07"/>
	<path d="M 8.767936,6.0 L 9.425436,6.0" fill="none" stroke="#000000" stroke-width="0.07"/>
	<path d="M 9.425436,6.0 L 9.425436,7.5" fill="none" stroke="#000000" stroke-width="0.07"/>
	<path d="M 9.425436,7.5 L 8.425436,7.5" fill="none" stroke="#000000" stroke-width="0.07"/>
	<path d="M 8.425436,7.5 L 8.425436,6.0" fill="none" stroke="#000000" stroke-width="0.07"/>
	<path d="M 22.641502,7.5 L 23.641502,7.5" fill="none" stroke="#000000" stroke-width="0.07"/>
	<path d="M 23.641502,7.5 L 23.641502,9.0" fill="none" stroke="#000000" stroke-width="0.07"/>
	<path d="M 23.641502,9.0 L 22.641502,9.0" fill="none" stroke="#000000" stroke-width="0.07"/>
	<path d="M 22.641502,9.0 L 22.641502,7.5" fill="none" stroke="#000000" stroke-width="0.07"/>
	<path d="M 46.928319,9.0 L 47.928319,9.0" fill="none" stroke="#000000" stroke-width="0.07"/>
	<path d="M 47.928319,9.0 L 47.928319,10.5" fill="none" stroke="#000000" stroke-width="0.07"/>
	<path d="M 47.928319,10.5 L 46.928319,10.5" fill="none" stroke="#000000" stroke-width="0.07"/>
	<path d="M 46.928319,10.5 L 46.928319,9.0" fill="none" stroke="#000000" stroke-width="0.07"/>
	<path d="M 5.69151,10.5 L 6.69151,10.5" fill="none" stroke="#000000" stroke-width="0.07"/>
	<path d="M 6.69151,10.5 L 6.69151,12.0" fill="none" stroke="#000000" stroke-width="0.07"/>
	<path d="M 6.69151,12.0 L 5.915284999999999,12.0" fill="none" stroke="#000000" stroke-width="0.07"/>
	<path d="M 5.915284999999999,12.0 L 5.69151,12.0" fill="none" stroke="#000000" stroke-width="0.07"/>
	<path d="M 5.69151,12.0 L 5.69151,10.5" fill="none" stroke="#000000" stroke-width="0.07"/>
	<path d="M 4.915285,12.0 L 5.691510000000001,12.0" fill="none" stroke="#000000" stroke-width="0.07"/>
	<path d="M 5.915285,12.0 L 5.915285,13.5" fill="none" stroke="#000000" stroke-width="0.07"/>
	<path d="M 5.915285,13.5 L 4.915285,13.5" fill="none" stroke="#000000" stroke-width="0.07"/>
	<path d="M 4.915285,13.5 L 4.915285,12.0" fill="none" stroke="#000000" stroke-width="0.07"/>
	<path d="M 1.373434,13.5 L 2.373434,13.5" fill="none" stroke="#000000" stroke-width="0.07"/>
	<path d="M 2.373434,13.5 L 2.373434,15.0" fill="none" stroke="#000000" stroke-width="0.07"/>
	<path d="M 2.373434,15.0 L 1.373434,15.0" fill="none" stroke="#000000" stroke-width="0.07"/>
	<path d="M 1.373434,15.0 L 1.373434,13.5" fill="none" stroke="#000000" stroke-width="0.07"/>
</svg>
